<?xml version="1.0" encoding="UTF-8"?>
<!DOCTYPE svg PUBLIC "-//W3C//DTD SVG 1.1//EN" "http://www.w3.org/Graphics/SVG/1.1/DTD/svg11.dtd">
<!-- Creator: CorelDRAW 2020 (64 Bit) -->
<svg xmlns="http://www.w3.org/2000/svg" xml:space="preserve" width="1024px" height="768px" version="1.1" style="shape-rendering:geometricPrecision; text-rendering:geometricPrecision; image-rendering:optimizeQuality; fill-rule:evenodd; clip-rule:evenodd"
viewBox="0 0 1024 768"
 xmlns:xlink="http://www.w3.org/1999/xlink"
 xmlns:xodm="http://www.corel.com/coreldraw/odm/2003">
 <defs>
  <style type="text/css">
   <![CDATA[
    .str2 {stroke:#117060;stroke-width:4;stroke-miterlimit:22.9256}
    .str1 {stroke:white;stroke-width:10;stroke-miterlimit:22.9256}
    .str0 {stroke:white;stroke-width:10;stroke-miterlimit:22.9256;stroke-dasharray:49.999000 49.999000}
    .fil0 {fill:none}
    .fil1 {fill:white}
    .fil2 {fill:white;fill-rule:nonzero}
   ]]>
  </style>
 </defs>
 <g id="Camada_x0020_1">
  <metadata id="CorelCorpID_0Corel-Layer"/>
  <g id="_2123548404208">
   <line class="fil0 str0" x1="510.927" y1="672.064" x2="510.413" y2= "418.096" />
   <line class="fil0 str0" x1="510.927" y1="349.905" x2="510.413" y2= "95.936" />
   <rect class="fil1 str1" transform="matrix(1.53855 -1.53855 1.53374 1.51584 488.191 385.762)" width="15" height="16"/>
   <rect class="fil1 str1" transform="matrix(1.53855 -1.53855 1.53374 1.51584 488.191 671.477)" width="15" height="16"/>
   <rect class="fil1 str1" transform="matrix(1.53855 -1.53855 1.53374 1.51584 488.191 95.348)" width="15" height="16"/>
   <line class="fil0 str0" x1="359.62" y1="535.556" x2="740.572" y2= "535.556" />
   <line class="fil0 str1" x1="662.794" y1="603.809" x2="737.397" y2= "535.556" />
   <line class="fil0 str1" x1="281.842" y1="603.809" x2="356.445" y2= "535.556" />
   <line class="fil0 str1" x1="281.842" y1="222.857" x2="356.445" y2= "154.604" />
   <polyline class="fil0 str1" points="356.445,154.604 737.397,154.604 737.397,535.556 "/>
   <circle class="fil1 str1" cx="737.397" cy="535.556" r="23.809"/>
   <line class="fil0 str0" x1="356.445" y1="157.778" x2="356.445" y2= "538.73" />
   <line class="fil0 str0" x1="35.81" y1="386.348" x2="480.255" y2= "386.348" />
   <circle class="fil1 str1" cx="356.445" cy="154.603" r="23.809"/>
   <line class="fil0 str0" x1="543.746" y1="386.348" x2="988.19" y2= "386.348" />
   <circle class="fil1 str1" cx="356.445" cy="535.556" r="23.809"/>
   <rect class="fil0 str1" x="281.841" y="222.857" width="380.952" height="380.952"/>
   <line class="fil0 str1" x1="662.794" y1="222.857" x2="737.397" y2= "154.604" />
   <circle class="fil1 str1" cx="662.794" cy="222.857" r="23.809"/>
   <circle class="fil1 str1" cx="737.397" cy="154.603" r="23.809"/>
   <circle class="fil1 str1" cx="281.842" cy="222.857" r="23.809"/>
   <circle class="fil1 str1" cx="662.794" cy="603.809" r="23.809"/>
   <circle class="fil1 str1" cx="281.842" cy="603.809" r="23.809"/>
   <rect class="fil1 str1" transform="matrix(1.53855 -1.53855 1.53374 1.51584 11.9998 385.761)" width="15" height="16"/>
   <rect class="fil1 str1" transform="matrix(1.53855 -1.53855 1.53374 1.51584 964.382 385.761)" width="15" height="16"/>
   <path class="fil2 str2" d="M224.386 360.075c0,20.482 -5.546,36.894 -16.636,49.192 -11.448,12.655 -27.324,19.006 -47.582,19.006 -5.008,0 -12.521,-0.179 -22.629,-0.581 -10.062,-0.403 -17.664,-0.582 -22.717,-0.582 -2.818,0 -4.204,1.789 -4.204,5.366 0,4.652 0.313,11.583 0.939,20.84 0.626,9.302 0.94,16.233 0.94,20.884 0,1.476 -0.85,2.236 -2.505,2.236 -1.833,0 -4.606,-0.224 -8.318,-0.581 -3.712,-0.403 -6.484,-0.626 -8.317,-0.626 -1.61,0 -3.936,0.134 -6.977,0.402 -3.041,0.268 -5.322,0.403 -6.842,0.403 -2.191,0 -3.264,-1.342 -3.264,-4.07 0,-9.525 0.402,-23.88 1.207,-43.11 0.804,-19.185 1.207,-33.585 1.207,-43.199 0,-27.235 -1.028,-56.526 -3.086,-87.785l-0.134 -1.968c-0.089,-1.923 1.029,-2.862 3.399,-2.862 4.74,0 11.806,0.044 21.331,0.134 9.481,0.09 16.591,0.134 21.421,0.134 4.115,0 10.241,-0.179 18.47,-0.537 8.228,-0.358 14.399,-0.536 18.514,-0.536 19.274,0 35.149,6.573 47.582,19.632 12.119,12.835 18.201,28.934 18.201,48.208zm-33.003 1.968c0,-13.103 -3.534,-23.613 -10.599,-31.483 -7.334,-8.184 -17.486,-12.298 -30.365,-12.298 -4.025,0 -11.18,0.358 -21.466,1.028 -11.806,0.716 -17.887,1.431 -18.201,2.102 -0.626,1.073 -0.939,16.099 -0.939,45.078 0,3.667 0.09,9.167 0.313,16.546 0.224,7.335 0.358,12.835 0.358,16.502 0,0.76 0.939,1.386 2.862,1.833 4.785,0.939 18.112,1.431 39.935,1.431 12.209,0 21.734,-3.801 28.531,-11.403 6.395,-7.245 9.571,-17.039 9.571,-29.336zm200.434 -1.968c0,20.482 -5.545,36.894 -16.635,49.192 -11.448,12.655 -27.324,19.006 -47.582,19.006 -5.009,0 -12.522,-0.179 -22.629,-0.581 -10.062,-0.403 -17.664,-0.582 -22.717,-0.582 -2.818,0 -4.204,1.789 -4.204,5.366 0,4.652 0.313,11.583 0.939,20.84 0.626,9.302 0.939,16.233 0.939,20.884 0,1.476 -0.849,2.236 -2.504,2.236 -1.834,0 -4.606,-0.224 -8.318,-0.581 -3.712,-0.403 -6.484,-0.626 -8.318,-0.626 -1.609,0 -3.935,0.134 -6.976,0.402 -3.041,0.268 -5.322,0.403 -6.842,0.403 -2.191,0 -3.265,-1.342 -3.265,-4.07 0,-9.525 0.403,-23.88 1.208,-43.11 0.804,-19.185 1.207,-33.585 1.207,-43.199 0,-27.235 -1.028,-56.526 -3.086,-87.785l-0.134 -1.968c-0.089,-1.923 1.029,-2.862 3.399,-2.862 4.74,0 11.806,0.044 21.331,0.134 9.481,0.09 16.591,0.134 21.421,0.134 4.114,0 10.241,-0.179 18.47,-0.537 8.228,-0.358 14.399,-0.536 18.513,-0.536 19.275,0 35.15,6.573 47.583,19.632 12.119,12.835 18.2,28.934 18.2,48.208zm-33.003 1.968c0,-13.103 -3.533,-23.613 -10.598,-31.483 -7.334,-8.184 -17.486,-12.298 -30.365,-12.298 -4.025,0 -11.18,0.358 -21.466,1.028 -11.806,0.716 -17.888,1.431 -18.201,2.102 -0.626,1.073 -0.939,16.099 -0.939,45.078 0,3.667 0.09,9.167 0.313,16.546 0.224,7.335 0.358,12.835 0.358,16.502 0,0.76 0.939,1.386 2.862,1.833 4.785,0.939 18.111,1.431 39.935,1.431 12.208,0 21.734,-3.801 28.531,-11.403 6.395,-7.245 9.57,-17.039 9.57,-29.336zm212.51 107.596c0.179,1.923 -0.939,2.906 -3.309,2.906 -1.297,0 -4.472,-1.252 -9.526,-3.756 -5.053,-2.504 -8.318,-4.293 -9.704,-5.367 -16.054,10.912 -35.105,16.368 -57.107,16.368 -25.67,0 -46.822,-9.615 -63.414,-28.8 -15.696,-18.156 -23.567,-40.292 -23.567,-66.409 0,-26.697 7.737,-49.147 23.21,-67.303 16.367,-19.185 37.654,-28.8 63.86,-28.8 13.461,0 26.43,3.175 38.907,9.481 12.432,6.35 22.404,15.026 29.828,26.027 1.118,1.654 1.699,2.907 1.699,3.801 0,1.207 -3.13,5.277 -9.392,12.119 -6.305,6.842 -9.882,10.286 -10.866,10.286 -0.716,0 -3.354,-2.684 -8.005,-8.005 -5.59,-6.484 -10.912,-11.448 -16.01,-14.847 -7.915,-5.322 -16.233,-8.005 -24.909,-8.005 -16.501,0 -30.052,6.887 -40.606,20.705 -9.615,12.567 -14.445,27.458 -14.445,44.541 0,16.726 4.92,31.483 14.803,44.318 10.733,13.908 24.238,20.839 40.472,20.839 15.965,0 30.633,-4.382 44.004,-13.103 -0.179,-2.37 -0.894,-10.688 -2.191,-24.954 -1.029,-10.106 -1.565,-18.379 -1.565,-24.774 0,-1.476 0.984,-2.236 2.907,-2.236 1.654,0 4.114,0.134 7.468,0.358 3.309,0.223 5.813,0.313 7.468,0.313 1.655,0 4.204,-0.09 7.602,-0.269 3.399,-0.179 5.948,-0.268 7.603,-0.268 1.833,0 2.772,1.431 2.772,4.203 0,3.086 -0.134,7.693 -0.357,13.819 -0.224,6.171 -0.313,10.777 -0.313,13.863 0,12.567 0.849,29.65 2.549,51.115l0.134 1.834zm204.952 3.13c0,2.192 -1.074,3.265 -3.265,3.265 -1.565,0 -3.935,-0.135 -7.111,-0.403 -3.175,-0.268 -5.544,-0.402 -7.11,-0.402 -1.565,0 -3.98,0.134 -7.2,0.402 -3.219,0.268 -5.59,0.403 -7.155,0.403 -2.191,0 -3.264,-1.431 -3.264,-4.338 0,-11.091 0.313,-27.727 1.028,-49.908 0.716,-22.181 1.028,-38.817 1.028,-49.952 0,-1.655 -0.312,-2.46 -1.028,-2.46 -0.805,0 -1.386,0.493 -1.833,1.431 -4.472,9.526 -14.982,35.016 -31.573,76.382 -2.683,7.96 -6.574,17.888 -11.627,29.783 -0.626,0.985 -3.802,1.476 -9.481,1.476 -8.273,0 -12.835,-0.76 -13.729,-2.236 -2.951,-7.065 -7.2,-16.993 -12.745,-29.738 -7.245,-17.262 -18.425,-43.021 -33.495,-77.232 -0.268,-0.626 -0.805,-1.207 -1.7,-1.833 -0.715,0.537 -1.028,1.476 -1.028,2.862 0,11.269 0.179,28.173 0.581,50.712 0.403,22.539 0.581,39.443 0.581,50.713 0,2.862 -1.073,4.338 -3.264,4.338 -1.52,0 -3.756,-0.135 -6.842,-0.403 -3.041,-0.268 -5.322,-0.402 -6.797,-0.402 -1.566,0 -3.936,0.134 -7.022,0.402 -3.085,0.268 -5.455,0.403 -7.021,0.403 -2.191,0 -3.264,-0.85 -3.264,-2.505 0,-9.704 0.447,-24.238 1.341,-43.557 0.895,-19.364 1.342,-33.897 1.342,-43.557 0,-10.062 -0.447,-25.132 -1.342,-45.302 -0.894,-20.124 -1.341,-35.194 -1.341,-45.256 0,-1.655 0.984,-2.593 2.996,-2.862 11.851,-1.565 20.795,-2.37 26.787,-2.37 0.895,0 2.102,1.788 3.712,5.366 21.198,46.464 39.398,87.964 54.648,124.456 3.577,8.586 5.724,12.834 6.44,12.834 0.894,0 2.772,-3.488 5.634,-10.464 11.94,-28.263 28.487,-70.21 49.595,-125.887 1.386,-3.488 2.862,-5.232 4.472,-5.232 2.951,0 7.379,0.179 13.282,0.537 5.903,0.358 10.33,0.492 13.282,0.492 2.146,0 3.22,1.073 3.22,3.175 0,10.017 -0.314,25.132 -0.94,45.256 -0.626,20.125 -0.939,35.24 -0.939,45.257 0,9.615 0.358,24.014 1.073,43.244 0.716,19.23 1.074,33.585 1.074,43.11zm172.261 -26.966c0,1.028 -0.85,2.549 -2.505,4.427 -17.038,19.722 -38.146,29.56 -63.323,29.56 -26.206,0 -47.224,-9.57 -62.921,-28.665 -14.713,-17.844 -22.047,-40.069 -22.047,-66.812 0,-26.698 7.468,-49.058 22.449,-67.035 15.921,-19.364 36.939,-29.068 63.1,-29.068 26.519,0 47.001,8.944 61.535,26.832 1.386,1.833 2.102,3.398 2.102,4.606 0,1.476 -2.325,5.858 -6.977,13.148 -4.65,7.289 -7.468,10.956 -8.451,10.956 -1.118,0 -3.802,-2.146 -8.005,-6.44 -5.143,-5.232 -10.018,-9.167 -14.579,-11.806 -7.513,-4.293 -15.831,-6.439 -24.909,-6.439 -17.307,0 -30.767,6.573 -40.382,19.766 -8.586,11.806 -12.88,26.653 -12.88,44.586 0,17.888 4.249,32.869 12.746,44.943 9.615,13.55 23.031,20.303 40.248,20.303 8.586,0 16.859,-2.147 24.819,-6.395 5.233,-2.773 10.599,-6.753 16.01,-11.895 4.561,-4.249 7.021,-6.395 7.468,-6.395 0.537,0 3.399,3.443 8.631,10.374 5.232,6.932 7.871,10.733 7.871,11.449z"/>
  </g>
 </g>
</svg>
