<?xml version="1.0" encoding="UTF-8"?>
<!DOCTYPE svg PUBLIC "-//W3C//DTD SVG 1.1//EN" "http://www.w3.org/Graphics/SVG/1.1/DTD/svg11.dtd">
<!-- Creator: CorelDRAW 2020 (64 Bit) -->
<svg xmlns="http://www.w3.org/2000/svg" xml:space="preserve" width="100px" height="100px" version="1.1" style="shape-rendering:geometricPrecision; text-rendering:geometricPrecision; image-rendering:optimizeQuality; fill-rule:evenodd; clip-rule:evenodd"
viewBox="0 0 100 100"
 xmlns:xlink="http://www.w3.org/1999/xlink"
 xmlns:xodm="http://www.corel.com/coreldraw/odm/2003">
 <defs>
  <style type="text/css">
   <![CDATA[
    .str2 {stroke:#4C453F;stroke-width:2.36;stroke-miterlimit:22.9256}
    .str3 {stroke:#8E633F;stroke-width:2.36;stroke-miterlimit:22.9256}
    .str0 {stroke:#9E6F4C;stroke-width:2.36;stroke-miterlimit:22.9256}
    .str4 {stroke:#DDB58E;stroke-width:2.36;stroke-miterlimit:22.9256}
    .str5 {stroke:#E0DBD3;stroke-width:2.36;stroke-miterlimit:22.9256}
    .str1 {stroke:#E8C59E;stroke-width:2.36;stroke-miterlimit:22.9256}
    .fil16 {fill:#3B3937}
    .fil7 {fill:#4B4B4C}
    .fil3 {fill:#4C453F}
    .fil4 {fill:#8C633F}
    .fil11 {fill:#8F633E}
    .fil13 {fill:#90633E}
    .fil1 {fill:#9D6F4C}
    .fil12 {fill:#9E6E4B}
    .fil17 {fill:#C5A998}
    .fil15 {fill:#C5C2AB}
    .fil14 {fill:#CAC5AD}
    .fil5 {fill:#DAB58E}
    .fil9 {fill:#DBB58D}
    .fil10 {fill:#E0DBD3}
    .fil2 {fill:#E3C49D}
    .fil6 {fill:#E4C59D}
    .fil0 {fill:#E8E9E1}
    .fil8 {fill:#E9E9E1}
   ]]>
  </style>
 </defs>
 <g id="Camada_x0020_1">
  <metadata id="CorelCorpID_0Corel-Layer"/>
  <g id="_2622000015600">
   <path class="fil0" d="M41.27 75.15c0.1,0.32 0.22,0.41 0.48,0.69l4.67 4.74 0.31 0.24c0.01,-0.02 0.03,-0.08 0.03,-0.07 0.01,0.02 0.03,-0.05 0.04,-0.07l0.14 -0.43c-0.1,-1.47 0.37,-4.62 0.52,-6.26 0.08,-0.91 -0.44,-1.14 -1.34,-2.08l-1.66 -1.57c-0.34,0.32 -1.29,1.9 -1.64,2.4 -0.29,0.42 -0.53,0.79 -0.83,1.22 -0.25,0.36 -0.73,0.82 -0.72,1.19z"/>
   <path class="fil0" d="M53.25 80.27l0.12 0.71c1.23,-0.64 4.65,-4.9 5.2,-5.24 0.02,-0.12 0.05,-0.24 0.07,-0.36 -0.51,-0.75 -1.01,-1.52 -1.56,-2.34 -0.37,-0.54 -1.37,-1.96 -1.52,-2.52l-0.32 0.13c-0.45,0.2 -0.83,0.89 -1.19,1.23 -0.51,0.49 -0.62,0.76 -1.2,1.24 -0.14,2.19 0.59,5.14 0.4,7.15z"/>
   <path class="fil0" d="M52.42 65.52c-0.18,0.35 -0.22,0.08 0,0.49 0.44,0.25 1.26,1.46 1.65,1.95 0.28,0.36 0.51,0.65 0.76,0.98 0.3,0.41 0.52,0.61 0.77,1.03l0.92 1.18c0.35,0.44 0.6,0.78 0.94,1.21 0.34,0.43 0.59,0.74 0.94,1.21l1.01 1.23c0.06,0.23 0.27,0.41 0.43,0.55 0.26,-0.2 2.86,-4.08 3.08,-4.5 -0.31,-0.3 -3.99,-0.86 -5.89,-1.86 -1.41,-0.74 -2.19,-1.44 -3.13,-2.6 -0.34,-0.42 -0.42,-0.75 -0.89,-0.87l-0.59 0z"/>
   <path class="fil1 str0" d="M33.2 65.94c-0.16,0.03 -0.24,0.06 -0.35,0.11l-1.42 0.62c-0.03,0.01 -0.05,0.02 -0.08,0.03l-0.38 0.13c-0.79,0.25 -1.32,0.48 -2.17,0.6l-0.98 0.24c-0.03,0.01 -0.06,0.02 -0.08,0.03 -0.03,0.01 -0.11,0.05 -0.15,0.06l-1.03 0.2c-0.02,0.01 -0.05,0.02 -0.07,0.02l-2.11 0.46c-0.23,0.02 -0.22,-0.02 -0.46,0.05 -0.03,0.01 -0.05,0.02 -0.08,0.03l-0.22 0.08c-0.24,0.07 -0.23,0.03 -0.46,0.05 -0.84,0.09 0,0.14 -0.82,0.2 -0.17,0.01 -0.35,-0.01 -0.51,0.01 -0.59,0.08 -0.1,0.04 -0.39,0.13 -0.35,0.11 -0.52,0.03 -0.88,0.14 -0.03,0.01 -0.11,0.05 -0.14,0.06l-0.9 0.23c-0.03,0.01 -0.05,0.01 -0.08,0.02l-8.58 2.59c-0.02,0.01 -0.05,0.02 -0.07,0.03l-2.81 1.6c-0.02,0.01 -0.04,0.02 -0.06,0.04l-0.89 0.65c-0.8,0.47 -1.39,1.27 -2.06,1.93 -0.14,0.13 -0.18,0.16 -0.26,0.25l-2.3 4.67c-0.01,0.02 -0.02,0.05 -0.03,0.07l-0.75 3.04c-0.01,0.03 -0.01,0.06 -0.02,0.09 0,0.03 -0.01,0.05 -0.02,0.08l-0.24 0.69c-0.1,0.28 -0.06,0.85 -0.18,1.23l-0.06 0.15c-0.01,0.02 -0.02,0.05 -0.03,0.07 -0.09,0.31 -0.01,0.62 -0.1,0.94l-0.29 1.24c-0.18,0.54 0.03,1.31 -0.12,1.83 -0.01,0.03 -0.02,0.05 -0.03,0.08l-0.11 0.29c-0.14,0.67 0.11,1.39 -0.12,2.03 -0.04,0.1 -0.02,-0.08 -0.09,0.23 -0.13,0.6 -0.02,1.41 -0.01,2.03 0,0.06 0,0.49 0,0.51 -0.07,0.31 0.06,0.2 -0.21,0.31l0 1.43 2.72 0.46c0.7,0.18 1.07,0.15 1.31,0.23l0.68 0.13c0.16,0.01 0.23,-0.01 0.39,0.02 0.03,0.01 0.05,0.02 0.08,0.02 0.61,0.17 0.69,0.09 1.15,0.19 0.49,0.1 0.01,0.02 0.3,0.11 0.25,0.08 0.12,0.06 0.44,0.07l0.79 0.13c0.38,0.13 0.46,0.03 0.84,0.08 0.73,0.1 -0.13,0.14 0.72,0.2 0.37,0.03 0.67,-0.02 1.03,0.1 0.02,0.01 0.05,0.03 0.07,0.03 0.03,0.01 0.05,0.03 0.08,0.03l1.36 0.18c0.02,0.01 0.04,0.02 0.07,0.03l0.78 0.03c0.37,0.02 0.38,0.12 0.73,0.19 0.29,0.06 0.62,-0.01 0.9,0.03 0.73,0.1 -0.13,0.14 0.72,0.2 0.32,0.03 0.57,-0.04 0.88,0.04l0.29 0.12c0.19,0.05 0.26,0.05 0.47,0.05 0.37,0 0.68,-0.02 1.03,0.1 0.02,0.01 0.04,0.02 0.07,0.03 0.45,0.15 0.99,0.01 1.46,0.07 0.72,0.11 -0.13,0.14 0.72,0.21 0.27,0.02 0.65,-0.04 0.92,0 0.72,0.1 -0.13,0.13 0.72,0.2 0.27,0.03 0.65,-0.03 0.92,0 0.58,0.09 0.02,0.21 1.65,0.2 0.09,0 0.31,0 0.4,0.01 0.58,0.08 0.1,0.03 0.38,0.13 0.62,0.21 1.41,-0.01 2.05,0.2l1.87 0.08c0.59,0.08 0.1,0.03 0.38,0.13 0.54,0.18 1.44,0 2.05,0.2 0.86,0.29 1.94,-0.13 2.8,0.18 0.09,0.03 -0.08,0.01 0.23,0.08 0.77,0.17 1.93,-0.09 2.74,0.02 0.72,0.11 -0.13,0.13 0.72,0.21 0.9,0.08 1.96,-0.09 2.87,-0.01 0.82,0.07 -0.12,0.2 2.44,0.21l0.12 0 11.27 0c0.22,-0.22 0.16,-0.17 0.61,-0.19 0.27,-0.01 0.55,-0.01 0.82,-0.02 0.59,-0.01 1.17,-0.02 1.75,-0.03l3.17 0.03c0.59,-0.09 0.17,-0.2 0.92,-0.21 0.71,-0.01 1.45,0.01 2.16,0.02 1.13,0 0.08,-0.22 1.94,-0.22 2.26,0.01 1.2,-0.08 1.96,-0.2 0.23,-0.03 0.76,0 1.02,0 1.61,0.02 0.26,-0.23 1.94,-0.2 1.65,0.02 0.45,-0.23 1.95,-0.21 1.97,0.02 0.92,-0.2 1.94,-0.21 2.35,-0.03 1,-0.17 1.94,-0.21 0.67,-0.02 0.75,0.12 1.34,-0.09l0.15 -0.06c0.19,-0.06 0.26,-0.05 0.46,-0.05l0.81 -0.02c0.34,-0.07 0.22,-0.15 0.63,-0.18l1.03 0c0.88,-0.07 -0.19,-0.19 1.44,-0.2 0.65,0 0.48,-0.14 0.92,-0.21 0.69,-0.09 0.49,0.17 1.4,-0.13 0.67,-0.23 0.49,0.11 1.43,-0.21 0.42,-0.14 0.63,-0.02 1.05,-0.07 0.68,-0.1 -0.07,-0.19 0.82,-0.21 1.21,-0.03 0.8,0.12 0.93,-0.2 0.24,0 0.49,0.01 0.72,0.01 0.04,0 0.39,-0.01 0.4,-0.02 0.37,-0.11 0.08,0.1 0.31,-0.19l-1 0c-0.1,-1.33 -0.18,-2.47 -0.25,-3.8 -0.07,-1.17 -0.27,-2.4 -0.37,-3.58 -0.19,-2.25 -0.89,-4.56 -1.41,-6.61 -1.21,-4.72 -3.28,-7 -6.74,-9.13 -4.02,-2.49 -10.41,-3.64 -15.37,-4.61 -2.88,-0.57 -1.9,-0.47 -4.13,3.37 -1.58,2.74 -1.25,2.88 -2.07,1.71 -0.1,-0.16 -0.18,-0.26 -0.36,-0.38 -0.4,-0.28 -0.18,0.1 -0.3,-0.21 -0.55,0.34 -3.97,4.6 -5.2,5.24l-0.12 -0.71c0.02,0.71 0.13,0.78 -0.31,1.15 -1.84,1.52 -2.85,2 -4.85,0.51 -1.19,-0.88 -1.16,-0.72 -1.15,-1.68l-0.14 0.43c-0.01,0.02 -0.03,0.09 -0.04,0.07 0,-0.01 -0.02,0.05 -0.03,0.07l-0.31 -0.24 0.03 0.47c-0.17,0 -0.18,0 -0.35,0.04l-0.71 0.4 -2.93 -2.95c-0.07,-0.07 -0.07,-0.08 -0.15,-0.15l-0.48 -0.46c-0.02,-0.01 -0.05,-0.02 -0.06,-0.04 -0.52,-0.34 -0.25,-0.18 -0.76,-1.01 -0.23,-0.37 0.16,0.12 -0.15,-0.17 -0.23,-0.22 -0.29,-0.05 -0.39,-0.79 0.79,0.01 0.39,0.12 0.82,-0.31l0.46 0.23c-0.26,-0.28 -0.38,-0.37 -0.48,-0.69l-0.15 0 -0.16 0.22c-0.3,0.43 -0.8,1.46 -1.21,1.67 -0.32,-0.13 -0.22,-0.12 -0.4,-0.5l-1.76 -3.13c-0.82,-1.85 -1.02,-2.14 -2.01,-3.78 -0.42,-0.7 -0.69,-0.98 -0.33,-0.98 -0.19,-0.52 -0.67,-1.15 -0.97,-1.59 -0.25,-0.37 -0.63,-1.19 -1.08,-1.12z"/>
   <path class="fil2 str1" d="M47.71 65.8c-0.35,0.11 -0.09,-0.01 -0.21,0.2l4.92 0.01c-0.22,-0.41 -0.18,-0.14 0,-0.49 -0.16,0.02 -0.35,0.1 -0.41,0.1l-0.4 -0.08c0.49,-0.44 1.11,-0.76 1.65,-1.1 0.62,-0.4 1.03,-0.74 1.59,-1.15 0.36,-0.33 0.52,-0.41 0.85,-0.72 1.14,-1.07 4.8,-4.72 4.97,-5.74l-0.12 -0.17c-0.07,0.38 -0.48,0.6 -0.69,0.92l-0.61 0.74c-0.23,0.28 0.04,-0.08 -0.18,0.31l-0.55 0.68c-0.29,0.49 -0.74,0.83 -1.11,1.26 -0.66,0.78 -0.2,0.28 -0.94,0.66 -0.61,0.31 -0.06,0.76 -1.54,1.52l-1.16 0.86c-0.36,0.28 -0.57,-0.04 -0.81,0.47 -0.18,0.38 -0.44,0.73 -0.93,0.53 -0.42,-0.16 0.06,-0.12 -0.39,-0.16 -0.26,0.46 -0.6,0.41 -1.13,0.41 0.14,-0.43 0.05,-0.27 0.3,-0.47 0.25,-0.22 0.02,-0.01 0.29,-0.12 0.57,-0.24 -0.07,-0.04 0.53,-0.37 0.19,-0.11 0.15,-0.04 0.37,-0.16l0.12 -0.07c0.02,-0.01 0.04,-0.03 0.05,-0.04l2 -1.4c0.48,-0.23 0.6,-0.78 0.97,-1.15 0.38,-0.38 0.87,-0.41 1.29,-0.76l0.26 -0.41c0.05,-0.14 0.09,-0.3 0.3,-0.47l0.88 -0.76c0.3,-0.23 0.18,-0.49 0.33,-0.89 0.3,-0.12 0.24,-0.01 0.41,-0.21 0,0 -0.01,0.01 -0.01,0.01l0.83 -0.92c0.01,-0.02 0.03,-0.04 0.04,-0.06l0.15 -0.3c0.16,-0.46 0.03,0.23 0,-0.29l0.01 -0.28c0.32,-0.1 0.39,-0.3 0.51,0.1 0.03,-0.65 0.08,-0.34 0.31,-0.61 0.38,-0.45 0.19,-0.53 0.19,-0.59l0 -0.14c0.14,-0.43 0.39,-0.24 0.56,-0.15 0.19,0.1 0.21,0.17 0.17,0.26 0,-0.28 -0.04,-0.17 -0.05,-0.2l-0.15 -0.41c0.54,0.07 0.61,-0.07 1.07,-0.3l0.06 -0.01c-0.15,-0.38 -0.06,-0.56 0.15,-0.95 0.01,-0.02 0.02,-0.04 0.03,-0.06 0.01,-0.02 0.03,-0.05 0.04,-0.07l0.07 -0.13c0.01,-0.02 0.02,-0.05 0.03,-0.07 0.01,-0.03 0.05,-0.11 0.07,-0.14 0.01,-0.02 0.02,-0.05 0.03,-0.07 0.02,-0.02 0.06,-0.11 0.07,-0.13l0.46 -0.97c0.01,-0.02 0.02,-0.05 0.03,-0.07l0.88 -2.1c0.01,-0.02 0.02,-0.05 0.03,-0.07 0.36,-0.91 0.01,-1.01 0.67,-1.01 -0.25,-0.12 -0.27,0.19 -0.13,-0.47l0.72 -2.65c0.05,-0.28 0,-0.35 0.08,-0.66 0.14,-0.53 0.07,0.09 0.14,-0.45 0.03,-0.23 0.07,-0.59 0.09,-0.66 0.15,-0.45 0.08,0.21 0.12,-0.44 0.04,-0.61 0.16,-0.78 0.2,-1.15 0.06,-0.39 -0.05,-0.81 0.06,-1.2 0.01,-0.03 0.03,-0.05 0.03,-0.08 0.29,-0.87 0.13,-2.84 0.12,-3.82 0,-0.6 0.02,-0.99 0.12,-1.27 0.15,-0.42 0.18,-2.68 0.08,-3.19l-0.05 -0.14c-0.23,-0.68 -0.15,-2.05 -0.15,-2.88l-0.66 -0.12c-0.44,-0.16 -0.6,-0.02 -0.88,0.07 -0.28,0.08 -0.82,-0.02 -0.96,-0.06 -0.24,-0.08 -0.07,-0.04 -0.39,-0.1l-1.68 -0.39c-1.21,-0.41 -0.83,-0.34 -1.38,-0.57 -0.02,-0.01 -0.05,-0.02 -0.07,-0.03 -0.14,-0.04 -0.23,-0.03 -0.42,-0.09 -0.51,-0.14 -0.82,-0.39 -1.26,-0.6 -0.02,-0.02 -0.05,-0.03 -0.07,-0.04 -2.37,-1.18 -6,-3.24 -8.47,-3.79l-1.63 -0.34c-0.44,-0.14 -0.46,-0.04 -0.89,-0.1 -0.69,-0.11 -0.06,-0.17 -0.8,-0.2 -1.37,-0.04 -4.31,0.25 -5.45,-0.2 -0.23,-0.09 -0.08,0.06 -0.2,-0.1 0.53,0.34 0.2,-0.17 0.41,0.51 -0.58,0 -1.25,-0.05 -1.76,0.12l-1.14 0.2c-0.03,0.01 -0.16,0.05 -0.26,0.07l-0.82 0.21c-0.11,0.02 -0.16,0.01 -0.26,0.04l-1.05 0.27c-0.03,0.01 -0.11,0.04 -0.15,0.05l-1.26 0.49c-0.32,0.1 0.01,0 -0.3,0.1l-1.6 0.71c-0.02,-0.03 -0.03,-0.08 -0.04,-0.11l0.04 -0.3c-0.35,0 -0.18,0.14 -0.71,0.2 -0.19,0.02 -0.26,-0.01 -0.45,0.03 -0.07,0.02 -0.06,0.01 -0.2,0.08l-0.41 0.28c-0.02,0.01 -0.04,0.03 -0.06,0.04 -0.01,0.02 -0.03,0.04 -0.05,0.06 -0.27,0.28 -0.31,0.47 -0.79,0.54l0 0.2c0.4,0.01 0.06,0.03 0.26,-0.15l0.52 -0.33c0.01,-0.01 0.03,-0.03 0.05,-0.04 0.17,-0.15 0.02,-0.13 0.22,-0.22l0.27 -0.03c0.37,0.05 0.1,-0.02 0.32,0.16 -0.15,0.37 0.01,0.13 -0.28,0.36 -0.04,0.03 -0.12,0.04 -0.26,0.14l-0.7 0.54c-0.02,0.01 -0.04,0.02 -0.06,0.03l-0.72 0.69c-1.15,1.16 -0.13,0.05 -0.82,1.02 -0.15,0.22 -0.26,0.23 -0.42,0.49 -0.15,0.25 0.04,0.32 -0.42,0.42 0,0.3 0.02,0.63 0.01,0.93 0,0.4 0.01,0.55 -0.32,0.7 -0.04,-0.01 -0.1,0.14 -0.21,-0.3 -0.08,-0.33 0.09,0.01 0.01,-0.38l0.1 -0.65c-0.21,-0.11 -0.03,-0.03 -0.21,-0.1 -0.1,0.52 0.03,0 -0.16,0.21 -0.36,0.43 0.01,-0.3 -0.06,0.11l-0.06 0.3c-0.3,0.48 -0.91,0.13 -1.26,0.1l0.36 0.46 -1.28 0.87c0.38,0 0.07,0.07 0.34,-0.26 0.32,-0.4 0.7,-0.54 1.29,-0.58 0.32,-0.01 0.64,0.07 0.83,0.23 -0.15,0.36 0.04,0.16 -0.3,0.35l-1.04 0.38c-0.79,0.48 -0.54,0.51 -0.93,1.17l-0.55 0.97c-0.15,0.49 -0.15,2.37 0.01,2.85l0.26 1.17c0.17,0.51 0.18,1.21 0.42,1.62 0.01,0.02 0.03,0.04 0.04,0.06l0.4 0.74c0.01,0.02 0.02,0.04 0.03,0.06l1.02 1.3c0.23,0.29 0.1,0.06 0.23,0.39 -0.1,0.09 -0.29,0.2 -0.61,0.21 0.48,0 2.32,0.56 2.57,1.03 0.02,0.03 0.03,0.05 0.04,0.08 0.01,0.02 0.02,0.05 0.03,0.07l0.19 0.56c0.04,0.18 0.03,0.27 0.07,0.43l0.5 1.85c0.01,0.02 0.02,0.05 0.03,0.07l0.05 0.16c0.09,0.27 0.02,0.05 0.1,0.3 0.01,0.04 0.04,0.13 0.05,0.17l0.52 2.03c0,0.02 0.02,0.04 0.03,0.06l1.26 2.83c0.01,0.03 0.03,0.05 0.04,0.07 0.01,0.02 0.02,0.05 0.03,0.07 0.09,0.18 0.08,0.16 0.17,0.34l0.86 1.51c0.01,0.02 0.02,0.04 0.03,0.06l0.2 0.41c0.09,0.15 0.11,0.14 0.22,0.28l0.53 0.81c0.19,0.32 0.04,0.16 0.34,0.46 0.17,0.17 0.31,0.28 0.47,0.46 0.17,0.2 0.08,0.08 0.22,0.31 0.13,0.22 0.01,0.07 0.14,0.26 0.63,0.87 1.99,1.59 2.37,2.59 0.14,0.38 0.01,0.27 0.43,0.35 0.13,0.03 0.09,0.01 0.28,0.06 0.56,0.15 0.87,0.56 1.33,0.85 0.31,0.2 0.43,0.42 0.74,0.58 0.02,0.01 0.05,0.02 0.07,0.03 0.5,0.24 0.76,0.55 1.17,0.79 0.48,0.28 0.51,0.46 1.16,0.78l0.98 0.43c0.32,0.1 0.05,0 0.24,0.08l4.05 1.52c-0.24,0.2 0.12,0.03 -0.38,0.2 -0.04,0.01 -0.19,0.01 -0.23,0.01 0.29,0.05 0.27,0.14 0.48,0.31 0.35,0.29 -0.31,-0.06 0.13,0.1 0.49,0.08 1.05,-0.03 1.48,0.1 0.03,0.01 0.11,0.04 0.14,0.05 0.02,0 0.05,0.01 0.07,0.01 0.1,0.04 0.16,0.05 0.26,0.11 0.04,0.02 0.07,0.05 0.1,0.07 0.04,0.02 0.08,0.1 0.1,0.08 0.03,-0.03 0.08,0.05 0.11,0.09l-1.83 0.02c-0.37,0.03 -0.38,0.02 -0.77,0z"/>
   <path class="fil3 str2" d="M23.77 31.62c0.29,-0.21 0.72,-1.08 1.11,-1.41 0.91,-0.78 0.94,-0.37 1.92,-0.64 0.11,-0.9 0.04,-0.97 0.41,-1.75 0.22,-0.46 0.53,-1.1 0.87,-1.32 0.15,-0.46 0.55,-0.81 0.83,-1.18l2.04 -1.84c0.37,-0.26 0.71,-0.49 1.11,-0.74 5.2,-3.16 13.14,-3.54 18.8,-1.77 4.7,1.48 6.8,3.38 10.46,4.7 4.82,1.73 8.88,0.04 11.32,-2.49 0.49,0.81 0.29,5.47 0.59,6.39 0.39,0.11 0.63,-0.06 0.89,0.2 1.31,0.04 1.8,1.72 2,2.1 0.27,0.51 -0.01,0.29 0.31,0.21l0.08 -0.65c0,-0.03 0.02,-0.05 0.02,-0.08 0.01,-0.02 0.03,-0.05 0.03,-0.07l0.27 -1.05c0.05,-0.22 0.03,-0.23 0.09,-0.43 0.01,-0.03 0.02,-0.05 0.03,-0.08l0.2 -1.03c0.01,-0.03 0.02,-0.05 0.03,-0.08 0.01,-0.02 0.02,-0.05 0.03,-0.07l0.23 -0.9c0.1,-0.53 0.03,-0.7 0.15,-1.07l0.21 -1.03c0.14,-0.42 0.01,-1.11 0.17,-1.56 0.04,-0.1 0.02,0.08 0.08,-0.23 0.11,-0.48 0.1,-3.34 -0.05,-3.8 -0.19,-0.61 -0.28,-1.21 -0.57,-1.78 -0.01,-0.02 -0.03,-0.05 -0.04,-0.07l-1.37 -1.3 0 -0.61c0.31,-0.13 0.16,0.22 0.22,-0.4l0.12 -0.9c0.04,-0.11 0.03,0.06 0.07,-0.25 0.03,-0.22 -0.02,-0.45 0.03,-0.68 0.07,-0.37 0.19,-0.56 0.18,-1.15 -0.02,-0.86 0.1,-0.74 0.18,-1.15 0.06,-0.24 0.14,-4.49 -0.05,-5.03 -0.12,-0.38 -0.07,-0.69 -0.15,-1.08l-0.19 -0.83c-0.02,-0.18 0,-0.1 -0.04,-0.27l-0.61 -1.84c-0.01,-0.03 -0.02,-0.06 -0.03,-0.08l-1.23 -2.25c-0.04,-0.06 -0.11,-0.15 -0.13,-0.18l-0.36 -0.36c-0.28,-0.27 -0.45,-0.44 -0.72,-0.71l-0.7 -0.53c-1,-0.48 -0.36,-0.33 -1.68,-0.78l-0.23 -0.08c-0.13,-0.05 -0.28,-0.08 -0.44,-0.1l-1.68 0 -0.03 0c-0.31,0.04 -0.19,0.01 -0.11,0l0.05 0c-0.01,0.01 -0.04,0.02 -0.11,0.04l-2.04 0.83c-0.02,0.01 -0.05,0.02 -0.07,0.03 -0.03,0.01 -0.12,0.05 -0.15,0.06 -0.62,0.2 -0.36,-0.1 -1.51,0.23 -0.6,0.17 -1.39,0.04 -2.01,0.04 -0.92,0 -1.86,0.02 -2.77,0.01l-0.75 -0.17c-0.18,-0.05 -0.17,-0.04 -0.36,-0.05 -0.37,-0.02 -0.99,0.06 -1.32,-0.02 -0.6,-0.12 0.14,-0.03 -0.45,-0.16 -0.43,-0.09 -0.95,0.04 -1.35,-0.09l-0.21 -0.09c-0.64,-0.18 -1.31,0.12 -2.18,-0.18 -0.26,-0.09 -7.23,-0.18 -8.02,-0.06 -0.72,0.1 0.04,0.05 -0.54,0.18 -0.75,0.16 -0.39,-0.2 -1.76,0.18 -0.38,0.1 -0.58,-0.01 -1.16,0.17 -0.34,0.11 -0.29,0.04 -0.63,0.09 -0.24,0.03 -0.15,0.03 -0.25,0.06 -0.02,0 -0.05,0.02 -0.07,0.03l-1.23 0.3c-0.14,0.03 -0.1,0.01 -0.26,0.05 -0.03,0.01 -0.05,0.02 -0.08,0.03l-0.69 0.23c-0.02,0.01 -0.05,0.02 -0.07,0.03l-0.47 0.15c-0.02,0 -0.05,0.02 -0.07,0.03 -0.02,0.01 -0.05,0.02 -0.07,0.03l-3.14 1.37c-0.02,0.01 -0.05,0.02 -0.07,0.03 -0.02,0.01 -0.05,0.03 -0.07,0.04l-0.96 0.47c-0.17,0.09 -0.11,0.04 -0.25,0.16l-1.25 1c-0.72,0.46 -1.18,1.14 -1.91,1.58l-0.18 0.13c-0.11,0.09 -0.01,-0.02 -0.15,0.15l-1.13 1.55c-0.1,0.14 -0.12,0.14 -0.17,0.22l-1.85 3.48c-0.01,0.03 -0.02,0.05 -0.03,0.08l-0.43 1.61c-0.11,0.55 0.16,0.34 -0.23,0.5l0 1.23 -0.41 0.09c-0.02,0.01 -0.05,0.02 -0.07,0.03l-0.62 0.21c-0.39,0.18 -0.17,0.04 -0.44,0.28l-1.33 1.63c-0.23,0.41 -0.33,0.93 -0.48,1.36l-0.34 1.61c-0.01,0.23 0.02,0.5 0.01,0.73 0,0.13 0,0.26 -0.02,0.39 -0.18,0.81 -0.19,0.67 -0.2,1.77 0,0.48 0.2,0.76 0.22,1.21 0.02,0.5 -0.04,1.36 0.1,1.75 0.06,0.18 0.02,-0.21 0.1,0.31 0.03,0.25 -0.03,0.57 0.01,0.81 0.1,0.72 0.05,-0.04 0.17,0.54 0.12,0.53 -0.07,0.39 0.19,1.36l0.14 0.87c0.04,0.11 0.03,-0.12 0.1,0.32 0.01,0.14 0,0.25 0.02,0.39l0.6 2.84z"/>
   <path class="fil4 str3" d="M62.92 70.85c-0.22,0.42 -2.82,4.3 -3.08,4.5 -0.16,-0.14 -0.37,-0.32 -0.43,-0.55 -0.46,0.17 0.01,-0.04 -0.23,0.14 -0.09,0.06 -0.1,0.09 -0.17,0.16 -0.2,0.19 -0.05,0.13 -0.37,0.28 -0.02,0.12 -0.05,0.24 -0.07,0.36 0.12,0.31 -0.1,-0.07 0.3,0.21 0.18,0.12 0.26,0.22 0.36,0.38 0.82,1.17 0.49,1.03 2.07,-1.71 2.23,-3.84 1.25,-3.94 4.13,-3.37 4.96,0.97 11.35,2.12 15.37,4.61 3.46,2.13 5.53,4.41 6.74,9.13 0.52,2.05 1.22,4.36 1.41,6.61 0.1,1.18 0.3,2.41 0.37,3.58 0.07,1.33 0.15,2.47 0.25,3.8l1 0c0.3,-0.01 0.86,0.03 1.13,-0.01 0.57,-0.08 -0.2,-0.1 1.13,-0.2 0.6,-0.05 0.26,-0.06 0.48,-0.13 0.29,-0.1 0.2,-0.06 0.54,-0.07 0.67,-0.02 0.37,-0.06 0.76,-0.17 0.61,-0.17 0.44,0.13 1.36,-0.17 0.43,-0.14 0.57,-0.02 0.94,-0.09 0.48,-0.1 0.02,-0.03 0.29,-0.12 0.5,-0.15 1.78,-0.27 2.19,-0.27l-0.93 0c0.15,-0.36 0.13,-0.24 0.28,-0.39 0.17,-0.17 0.29,-0.12 0.37,-0.38l-0.74 -0.06c0.2,-0.52 0.56,-0.74 0.34,-1.36 -0.15,-0.43 -0.14,-1.03 -0.13,-1.6 0,-1.6 -0.12,-1.1 -0.2,-1.65 -0.07,-0.48 0.07,-1.26 -0.03,-1.72 -0.08,-0.36 -0.18,-0.36 -0.19,-0.73 -0.06,-1.58 -0.03,-0.78 -0.21,-2.04l-0.22 -1.12c-0.05,-0.27 -0.06,-0.18 -0.08,-0.23 0,-0.02 -0.02,-0.05 -0.03,-0.07 0,-0.03 -0.01,-0.05 -0.02,-0.08 -0.05,-0.18 -0.03,-0.18 -0.06,-0.35 -0.04,-0.19 -0.02,-0.1 -0.06,-0.24l-0.62 -2.47c-0.01,-0.03 -0.04,-0.11 -0.05,-0.15 -0.03,-0.09 -0.09,-0.25 -0.13,-0.38l-0.49 -1.66c-0.26,-0.77 -0.47,-1.55 -0.93,-2.25l-0.51 -0.82c-0.17,-0.41 -0.34,-0.58 -0.69,-0.85 -0.37,-0.31 -0.3,-0.35 -0.46,-0.66 -0.29,-0.57 -0.4,-0.22 -0.57,-0.87 -0.15,-0.58 -0.2,-0.37 -0.6,-0.22 -0.16,-0.57 -0.09,-0.06 -0.35,-0.47l-0.22 -0.5c-0.65,-0.09 0.1,0.38 -0.62,0.11 -0.46,-0.18 0.03,-0.79 -0.47,-0.98l-0.39 -0.16c-0.22,0.42 0.25,-0.4 -0.11,0.16 -0.05,0.07 -0.06,0.05 -0.12,0.2 -0.7,-0.26 -0.34,-0.36 -1.66,-0.78 -0.46,-0.15 -0.35,0.17 -0.36,-0.45 -0.31,0.18 -0.3,0.2 -0.58,0.07 -0.65,-0.3 -0.34,-0.38 -0.28,-0.5 0,-0.01 0.02,-0.02 0.02,-0.04 0,-0.02 0.02,-0.03 0.02,-0.04l-1.44 -0.31c-0.28,-0.09 -0.14,-0.06 -0.2,-0.28l-0.01 -0.11c-0.33,0.09 -0.29,0.13 -0.64,0.19l0.02 -0.41c-0.56,0.18 -0.02,0.21 -0.74,0.23 -0.11,-0.46 0,0.05 0.03,-0.29 0,-0.01 0,-0.04 0,-0.05l-0.01 -0.1c-0.5,0.21 -0.09,0.24 -0.7,0.21 0.06,-0.23 0.04,-0.16 0.1,-0.42l-0.52 0.02c0.14,0.54 0.38,0.29 -0.05,0.4l0 0.16c-1.17,0 -0.77,0.01 -0.96,-0.16 -0.24,-0.22 0.14,-0.05 -0.35,-0.28 -0.3,-0.14 -0.42,-0.09 -0.75,-0.17 -1.39,-0.36 -0.91,-0.07 -1.74,-0.32 -0.34,-0.11 -0.73,-0.04 -1.06,-0.16 -0.03,-0.01 0.02,-0.03 -0.24,-0.09 -0.15,-0.03 -0.15,-0.01 -0.28,-0.03 -0.52,-0.04 -0.41,-0.15 -0.93,-0.21 -0.33,-0.03 -0.2,0.06 -0.54,-0.05 -0.47,-0.14 0.21,-0.09 -0.48,-0.16 -0.14,-0.01 -0.36,0.02 -0.51,0.03 -0.3,-0.5 0.2,-0.32 -0.41,-0.41 -0.57,0.15 -0.13,0.3 -0.59,0.1 -0.35,-0.15 -0.32,-0.08 -0.32,-0.53 -0.74,0.43 -0.23,0.12 -1.44,0.22 -0.51,-0.89 -0.6,-0.12 -1.1,-0.33l-0.42 -0.2c-0.31,-0.11 -0.34,-0.08 -0.73,-0.08l0.15 -0.56c0.01,-0.04 0.04,-0.04 0.05,-0.06l-0.47 0.09c-0.27,0.07 -0.64,0.14 -0.89,0.06 -0.04,-0.01 -0.12,-0.05 -0.15,-0.06 -0.03,-0.01 -0.05,-0.02 -0.08,-0.03 -1.3,-0.36 -0.1,0 -0.94,-0.39 -0.29,-0.13 -0.23,-0.03 -0.53,-0.09 -0.4,-0.08 -0.4,-0.32 -0.84,-0.39 0.23,-0.55 -0.34,0.51 0.14,-0.16 0.14,-0.19 0.01,0.11 0.06,-0.09 0.05,-0.17 -0.45,-0.3 -0.62,-0.34 -0.03,-0.01 -0.08,0.01 -0.09,-0.03 -0.02,-0.03 -0.07,-0.01 -0.1,-0.01l-3.07 4.48z"/>
   <path class="fil5 str4" d="M28.08 26.5c0.79,-0.3 2.68,-2.85 8.44,-4.33 3.57,-0.91 7.75,-1.17 11.52,-0.54 7.63,1.27 11.92,6.48 17.64,6.11l1.12 -0.09c0.03,0.01 0.06,0.01 0.09,0.02 0.26,0.07 0.28,0.16 0.31,0.5 0.02,0.16 0.02,0.35 0.03,0.52 0.23,8.08 0.51,14.79 -3.11,22.52 -0.67,1.44 -1.93,3.65 -2.9,4.98 -0.08,0.11 -0.14,0.21 -0.21,0.31l-0.34 0.33c-0.17,1.02 -3.83,4.67 -4.97,5.74 -0.33,0.31 -0.49,0.39 -0.85,0.72l-0.04 0.51c-0.01,0.03 -0.05,0.04 -0.06,0.05 -0.01,0.01 -0.06,0.06 -0.09,0.08l1.32 -0.54c1.21,-0.82 0.87,-0.42 2.14,-1.68 0.41,-0.42 0.97,-0.79 1.28,-1.3 0.37,-0.62 0.73,-0.79 1.02,-1.23l1.14 -1.52c0.01,-0.01 0.03,-0.04 0.04,-0.06 0.25,-0.33 0.49,-1.02 0.85,-1.2 -0.01,0.44 -0.19,0.42 -0.39,0.75l-0.56 0.87c-0.75,0.95 -1.11,1.53 -1.74,2.15 -0.48,0.48 -0.79,0.87 -0.79,1.56 0.34,-0.06 0.16,-0.05 0.63,-0.38 0.02,-0.01 0.04,-0.03 0.06,-0.04 0.02,-0.01 0.05,-0.02 0.07,-0.04 0.01,-0.01 0.04,-0.02 0.06,-0.03l0.62 -0.41c0.02,-0.01 0.05,-0.03 0.06,-0.04l0.55 -0.47c0.3,-0.18 -0.4,0.25 0.14,-0.07l0.19 -0.13c0.14,-0.11 0.04,-0.04 0.23,-0.17l0.74 -0.81c0.51,-0.5 2.47,-2.31 2.81,-2.83l2.21 -3.22c0.34,-0.46 0.6,-1.1 0.83,-1.64l2.62 -7.84c0.18,-0.52 0.08,-0.84 0.73,-0.99 -0.15,-0.49 -0.15,0.05 -0.13,-0.39 0.01,-0.35 0.07,0.01 0.16,-0.53 0.03,-0.21 0,-0.4 0.02,-0.6 0.06,-0.51 0.06,-0.06 0.17,-0.54 0.07,-0.33 0.01,-0.61 0.2,-1.43 0.09,-0.36 0.02,-0.75 0.03,-1.12 0.02,-0.74 0.19,-0.29 0.22,-1.12 0.03,-1.02 -0.38,-3.01 0.51,-3.44 0,0.91 0,1.82 0,2.73 0,0.87 -0.14,0.47 -0.21,1.11 -0.04,0.39 0,1.07 0,1.49 0.39,-0.14 0.28,0.3 0.31,-0.41l0.1 0c0.03,0.71 -0.08,0.27 0.31,0.41 0,-1.59 -0.21,-1.38 -0.21,-2.09 -0.01,-0.74 0,-1.48 0,-2.21l0.1 0c0,0.48 -0.04,0.66 0.11,1.02 0.29,-0.29 0.12,0.08 0.21,-0.46 0.02,-0.17 -0.02,-0.32 0.03,-0.56l0.17 -1.03 0.3 0c0,0.86 0.08,1.98 -0.14,2.75l-0.06 0.37c-0.01,0.14 0,0.37 0,0.52 0,0.24 0.03,0.69 0,0.91 -0.07,0.55 -0.16,0.1 -0.21,0.82 -0.02,0.29 0.03,0.65 0.01,0.93 -0.06,0.8 -0.18,-0.1 -0.21,0.87 0.62,-0.01 0.58,-0.07 0.84,-0.5l0.11 -0.2c0,-0.01 0.08,-0.19 0.09,-0.22l0.53 -1.42c0.42,-1.25 0.26,-1.08 0.38,-2.1 0.06,-0.51 0.06,-0.06 0.17,-0.54 0.15,-0.61 -0.16,-0.65 -0.18,-1.31 0,-0.35 0.04,-0.46 -0.05,-0.79 -0.13,-0.46 -0.11,0.11 -0.15,-0.55 -0.02,-0.43 0.05,-0.4 -0.08,-0.77 -0.14,-0.39 -0.44,-0.77 -0.53,-1.12 -0.74,0.04 -0.27,0.2 -0.78,0.2 -0.5,0 -0.01,-0.14 -0.66,-0.2l0 -0.11c0.73,-0.03 0.36,-0.08 0.21,-0.41 0.28,0 0.29,0.02 0.52,-0.05 0.06,-0.03 0.17,-0.08 0.22,-0.12l0.2 -0.18c-0.51,-0.33 -0.92,-0.33 -0.03,-0.46 -0.26,-0.26 -0.5,-0.09 -0.89,-0.2 -0.3,-0.92 -0.1,-5.58 -0.59,-6.39 -2.44,2.53 -6.5,4.22 -11.32,2.49 -3.66,-1.32 -5.76,-3.22 -10.46,-4.7 -5.66,-1.77 -13.6,-1.39 -18.8,1.77 -0.4,0.25 -0.74,0.48 -1.11,0.74l-2.04 1.84c-0.28,0.37 -0.68,0.72 -0.83,1.18z"/>
   <path class="fil6" d="M28.08 26.5c-0.34,0.22 -0.65,0.86 -0.87,1.32 -0.37,0.78 -0.3,0.85 -0.41,1.75 -0.98,0.27 -1.01,-0.14 -1.92,0.64 -0.39,0.33 -0.82,1.2 -1.11,1.41 -0.05,0.56 -0.12,0.35 -0.22,0.85l-0.03 0.17c-0.01,0.02 -0.02,0.05 -0.03,0.07l-0.26 1.38c-0.01,0.02 -0.02,0.05 -0.03,0.07 -0.15,0.53 -0.05,1.57 0.09,1.98 0.14,0.42 0.02,0.62 0.08,1.05 0.07,0.57 0.03,0.11 0.12,0.38l1.86 4.29 0.98 0.97c0.39,0.34 1.02,0.61 1.54,0.61 0,0.15 -0.01,0.24 0.02,0.39l0.44 1.72c0,0.02 0.01,0.05 0.02,0.07 0,0.01 0.06,0.15 0.06,0.15l0.94 3.26c0.01,0.03 0.01,0.06 0.02,0.08 0.02,0.03 0.05,0.11 0.07,0.14 0,0.01 0.14,0.26 0.14,0.27l0.59 1.56c0.01,0.03 0.01,0.05 0.02,0.08l1.13 2.26c0.07,0.13 0,-0.01 0.07,0.13l0.13 0.28c0.01,0.03 0.05,0.11 0.07,0.13l0.08 0.13c0,0 0.18,0.22 0.18,0.23 0.02,0.01 0.03,0.04 0.04,0.06l3.06 4.22c0.03,0.04 0.15,0.17 0.19,0.22l0.62 0.61c0.34,0.35 0.8,0.53 1.13,0.91 0.24,0.29 0.07,-0.05 0.2,0.33 0.39,0.14 0.81,0.52 1.16,0.78 0.38,0.28 0.7,0.51 1.14,0.8 1.62,1.07 3.55,1.92 5.43,2.57 0.61,0.21 2.63,0.6 2.89,0.98 0.39,0.02 0.4,0.03 0.77,0l1.83 -0.02c-0.03,-0.04 -0.08,-0.12 -0.11,-0.09 -0.02,0.02 -0.06,-0.06 -0.1,-0.08 -0.03,-0.02 -0.06,-0.05 -0.1,-0.07 -0.1,-0.06 -0.16,-0.07 -0.26,-0.11 -0.02,0 -0.05,-0.01 -0.07,-0.01 -0.03,-0.01 -0.11,-0.04 -0.14,-0.05 -0.43,-0.13 -0.99,-0.02 -1.48,-0.1 -0.44,-0.16 0.22,0.19 -0.13,-0.1 -0.21,-0.17 -0.19,-0.26 -0.48,-0.31 0.04,0 0.19,0 0.23,-0.01 0.5,-0.17 0.14,0 0.38,-0.2l-4.05 -1.52c-0.19,-0.08 0.08,0.02 -0.24,-0.08l-0.98 -0.43c-0.65,-0.32 -0.68,-0.5 -1.16,-0.78 -0.41,-0.24 -0.67,-0.55 -1.17,-0.79 -0.02,-0.01 -0.05,-0.02 -0.07,-0.03 -0.31,-0.16 -0.43,-0.38 -0.74,-0.58 -0.46,-0.29 -0.77,-0.7 -1.33,-0.85 -0.19,-0.05 -0.15,-0.03 -0.28,-0.06 -0.42,-0.08 -0.29,0.03 -0.43,-0.35 -0.38,-1 -1.74,-1.72 -2.37,-2.59 -0.13,-0.19 -0.01,-0.04 -0.14,-0.26 -0.14,-0.23 -0.05,-0.11 -0.22,-0.31 -0.16,-0.18 -0.3,-0.29 -0.47,-0.46 -0.3,-0.3 -0.15,-0.14 -0.34,-0.46l-0.53 -0.81c-0.11,-0.14 -0.13,-0.13 -0.22,-0.28l-0.2 -0.41c-0.01,-0.02 -0.02,-0.04 -0.03,-0.06l-0.86 -1.51c-0.09,-0.18 -0.08,-0.16 -0.17,-0.34 -0.01,-0.02 -0.02,-0.05 -0.03,-0.07 -0.01,-0.02 -0.03,-0.04 -0.04,-0.07l-1.26 -2.83c-0.01,-0.02 -0.03,-0.04 -0.03,-0.06l-0.52 -2.03c-0.01,-0.04 -0.04,-0.13 -0.05,-0.17 -0.08,-0.25 -0.01,-0.03 -0.1,-0.3l-0.05 -0.16c-0.01,-0.02 -0.02,-0.05 -0.03,-0.07l-0.5 -1.85c-0.04,-0.16 -0.03,-0.25 -0.07,-0.43l-0.19 -0.56c-0.01,-0.02 -0.02,-0.05 -0.03,-0.07 -0.01,-0.03 -0.02,-0.05 -0.04,-0.08 -0.25,-0.47 -2.09,-1.03 -2.57,-1.03 0.32,-0.01 0.51,-0.12 0.61,-0.21 -0.13,-0.33 0,-0.1 -0.23,-0.39l-1.02 -1.3c-0.01,-0.02 -0.02,-0.04 -0.03,-0.06l-0.4 -0.74c-0.01,-0.02 -0.03,-0.04 -0.04,-0.06 -0.24,-0.41 -0.25,-1.11 -0.42,-1.62l-0.26 -1.17c-0.16,-0.48 -0.16,-2.36 -0.01,-2.85l0.55 -0.97c0.39,-0.66 0.14,-0.69 0.93,-1.17l1.04 -0.38c0.34,-0.19 0.15,0.01 0.3,-0.35 -0.19,-0.16 -0.51,-0.24 -0.83,-0.23 -0.59,0.04 -0.97,0.18 -1.29,0.58 -0.27,0.33 0.04,0.26 -0.34,0.26l1.28 -0.87 -0.36 -0.46c0.35,0.03 0.96,0.38 1.26,-0.1l0.06 -0.3c0.07,-0.41 -0.3,0.32 0.06,-0.11 0.19,-0.21 0.06,0.31 0.16,-0.21 0.18,0.07 0,-0.01 0.21,0.1l-0.1 0.65c0.08,0.39 -0.09,0.05 -0.01,0.38 0.11,0.44 0.17,0.29 0.21,0.3 0.33,-0.15 0.32,-0.3 0.32,-0.7 0.01,-0.3 -0.01,-0.63 -0.01,-0.93 0.46,-0.1 0.27,-0.17 0.42,-0.42 0.16,-0.26 0.27,-0.27 0.42,-0.49 0.69,-0.97 -0.33,0.14 0.82,-1.02l0.72 -0.69c0.02,-0.01 0.04,-0.02 0.06,-0.03l0.7 -0.54c0.14,-0.1 0.22,-0.11 0.26,-0.14 0.29,-0.23 0.13,0.01 0.28,-0.36 -0.22,-0.18 0.05,-0.11 -0.32,-0.16l-0.27 0.03c-0.2,0.09 -0.05,0.07 -0.22,0.22 -0.02,0.01 -0.04,0.03 -0.05,0.04l-0.52 0.33c-0.2,0.18 0.14,0.16 -0.26,0.15l0 -0.2c0.48,-0.07 0.52,-0.26 0.79,-0.54 0.02,-0.02 0.04,-0.04 0.05,-0.06 0.02,-0.01 0.04,-0.03 0.06,-0.04l0.41 -0.28c0.14,-0.07 0.13,-0.06 0.2,-0.08 0.19,-0.04 0.26,-0.01 0.45,-0.03 0.53,-0.06 0.36,-0.2 0.71,-0.2l-0.04 0.3c0.01,0.03 0.02,0.08 0.04,0.11l1.6 -0.71c0.31,-0.1 -0.02,0 0.3,-0.1l1.26 -0.49c0.04,-0.01 0.12,-0.04 0.15,-0.05l1.05 -0.27c0.1,-0.03 0.15,-0.02 0.26,-0.04l0.82 -0.21c0.1,-0.02 0.23,-0.06 0.26,-0.07l1.14 -0.2c0.51,-0.17 1.18,-0.12 1.76,-0.12 -0.21,-0.68 0.12,-0.17 -0.41,-0.51 0.12,0.16 -0.03,0.01 0.2,0.1 1.14,0.45 4.08,0.16 5.45,0.2 0.74,0.03 0.11,0.09 0.8,0.2 0.43,0.06 0.45,-0.04 0.89,0.1l1.63 0.34c2.47,0.55 6.1,2.61 8.47,3.79 0.02,0.01 0.05,0.02 0.07,0.04 0.44,0.21 0.75,0.46 1.26,0.6 0.19,0.06 0.28,0.05 0.42,0.09 0.02,0.01 0.05,0.02 0.07,0.03 0.55,0.23 0.17,0.16 1.38,0.57l1.68 0.39c0.32,0.06 0.15,0.02 0.39,0.1 0.14,0.04 0.68,0.14 0.96,0.06 0.28,-0.09 0.44,-0.23 0.88,-0.07l0.66 0.12c0,0.83 -0.08,2.2 0.15,2.88l0.05 0.14c0.1,0.51 0.07,2.77 -0.08,3.19 -0.1,0.28 -0.12,0.67 -0.12,1.27 0.01,0.98 0.17,2.95 -0.12,3.82 0,0.03 -0.02,0.05 -0.03,0.08 -0.11,0.39 0,0.81 -0.06,1.2 -0.04,0.37 -0.16,0.54 -0.2,1.15 -0.04,0.65 0.03,-0.01 -0.12,0.44 -0.02,0.07 -0.06,0.43 -0.09,0.66 -0.07,0.54 0,-0.08 -0.14,0.45 -0.08,0.31 -0.03,0.38 -0.08,0.66l-0.72 2.65c-0.14,0.66 -0.12,0.35 0.13,0.47 -0.66,0 -0.31,0.1 -0.67,1.01 -0.01,0.02 -0.02,0.05 -0.03,0.07l-0.88 2.1c-0.01,0.02 -0.02,0.05 -0.03,0.07l-0.46 0.97c-0.01,0.02 -0.05,0.11 -0.07,0.13 -0.01,0.02 -0.02,0.05 -0.03,0.07 -0.02,0.03 -0.06,0.11 -0.07,0.14 -0.01,0.02 -0.02,0.05 -0.03,0.07l-0.07 0.13c-0.01,0.02 -0.03,0.05 -0.04,0.07 -0.01,0.02 -0.02,0.04 -0.03,0.06 -0.21,0.39 -0.3,0.57 -0.15,0.95l-0.06 0.01c-0.46,0.23 -0.53,0.37 -1.07,0.3l0.15 0.41c0.01,0.03 0.05,-0.08 0.05,0.2 0.04,-0.09 0.02,-0.16 -0.17,-0.26 -0.17,-0.09 -0.42,-0.28 -0.56,0.15l0 0.14c0,0.06 0.19,0.14 -0.19,0.59 -0.23,0.27 -0.28,-0.04 -0.31,0.61 -0.12,-0.4 -0.19,-0.2 -0.51,-0.1l-0.01 0.28c0.03,0.52 0.16,-0.17 0,0.29l-0.15 0.3c-0.01,0.02 -0.03,0.04 -0.04,0.06l-0.83 0.92c0,0 0.01,-0.01 0.01,-0.01 -0.17,0.2 -0.11,0.09 -0.41,0.21 -0.15,0.4 -0.03,0.66 -0.33,0.89l-0.88 0.76c-0.21,0.17 -0.25,0.33 -0.3,0.47l-0.26 0.41c-0.42,0.35 -0.91,0.38 -1.29,0.76 -0.37,0.37 -0.49,0.92 -0.97,1.15l-2 1.4c-0.01,0.01 -0.03,0.03 -0.05,0.04l-0.12 0.07c-0.22,0.12 -0.18,0.05 -0.37,0.16 -0.6,0.33 0.04,0.13 -0.53,0.37 -0.27,0.11 -0.04,-0.1 -0.29,0.12 -0.25,0.2 -0.16,0.04 -0.3,0.47 0.53,0 0.87,0.05 1.13,-0.41 0.45,0.04 -0.03,0 0.39,0.16 0.49,0.2 0.75,-0.15 0.93,-0.53 0.24,-0.51 0.45,-0.19 0.81,-0.47l1.16 -0.86c1.48,-0.76 0.93,-1.21 1.54,-1.52 0.74,-0.38 0.28,0.12 0.94,-0.66 0.37,-0.43 0.82,-0.77 1.11,-1.26l0.55 -0.68c0.22,-0.39 -0.05,-0.03 0.18,-0.31l0.61 -0.74c0.21,-0.32 0.62,-0.54 0.69,-0.92l0.12 0.17 0.34 -0.33c0.07,-0.1 0.13,-0.2 0.21,-0.31 0.97,-1.33 2.23,-3.54 2.9,-4.98 3.62,-7.73 3.34,-14.44 3.11,-22.52 -0.01,-0.17 -0.01,-0.36 -0.03,-0.52 -0.03,-0.34 -0.05,-0.43 -0.31,-0.5 -0.03,-0.01 -0.06,-0.01 -0.09,-0.02l-1.12 0.09c-5.72,0.37 -10.01,-4.84 -17.64,-6.11 -3.77,-0.63 -7.95,-0.37 -11.52,0.54 -5.76,1.48 -7.65,4.03 -8.44,4.33z"/>
   <path class="fil7" d="M48.31 73.41c0.71,-0.02 4.07,0.13 4.35,-0.09 0.02,0.47 0.15,0.61 0.14,0.96 -0.02,0.31 -0.02,0.19 -0.06,0.28 -0.03,0.01 -0.08,-0.02 -0.09,0.02 -0.05,0.09 -0.08,0.05 -0.45,-0.01 -0.16,-0.03 -0.42,-0.11 -0.59,-0.15l-2.21 -0.58c-0.19,-0.05 -0.38,-0.08 -0.55,-0.13 -0.51,-0.15 -0.45,-0.21 -0.54,-0.3zm-4.06 -3.53c0.01,0.03 0.03,0.05 0.04,0.11 0.01,0.05 0.02,0.07 0.04,0.1 0.02,0.05 0.11,0.21 0.13,0.25l1.66 1.57c0.9,0.94 1.42,1.17 1.34,2.08 -0.15,1.64 -0.62,4.79 -0.52,6.26 -0.01,0.96 -0.04,0.8 1.15,1.68 2,1.49 3.01,1.01 4.85,-0.51 0.44,-0.37 0.33,-0.44 0.31,-1.15 0.19,-2.01 -0.54,-4.96 -0.4,-7.15 0.58,-0.48 0.69,-0.75 1.2,-1.24 0.36,-0.34 0.74,-1.03 1.19,-1.23 0.23,-0.43 0.32,-0.2 0.36,-0.68 -0.25,-0.42 -0.47,-0.62 -0.77,-1.03 -0.25,-0.33 -0.48,-0.62 -0.76,-0.98 -0.39,-0.49 -1.21,-1.7 -1.65,-1.95l-4.92 -0.01c-0.33,0.17 -1.32,1.49 -1.68,1.95 -0.29,0.36 -0.53,0.64 -0.83,1.02 -0.23,0.3 -0.48,0.66 -0.74,0.91z"/>
   <path class="fil8" d="M33.2 65.94c0.45,-0.07 0.83,0.75 1.08,1.12 0.3,0.44 0.78,1.07 0.97,1.59l2.28 3.35c0.43,0.65 1.95,3.1 2.33,3.37l0.61 -0.74 3.78 -4.75c0.26,-0.25 0.51,-0.61 0.74,-0.91 0.3,-0.38 0.54,-0.66 0.83,-1.02 0.36,-0.46 1.35,-1.78 1.68,-1.95 0.12,-0.21 -0.14,-0.09 0.21,-0.2 -0.26,-0.38 -2.28,-0.77 -2.89,-0.98 -1.88,-0.65 -3.81,-1.5 -5.43,-2.57 -0.44,-0.29 -0.76,-0.52 -1.14,-0.8 -0.35,-0.26 -0.77,-0.64 -1.16,-0.78l-1.64 2.34c-0.03,0.03 -0.1,0.12 -0.13,0.18 -0.09,0.13 -0.04,0.08 -0.11,0.2l-0.3 0.41c-0.5,0.79 -0.34,0.36 -0.72,1.02l-0.68 0.87c-0.21,0.21 -0.21,0.05 -0.31,0.25z"/>
   <path class="fil9" d="M54.85 63.29c-0.56,0.41 -0.97,0.75 -1.59,1.15 -0.54,0.34 -1.16,0.66 -1.65,1.1l0.4 0.08c0.06,0 0.25,-0.08 0.41,-0.1l0.59 0c0.34,-0.32 2.13,-0.67 2.71,-0.89 0.8,-0.29 1.77,-0.68 2.53,-1.06 0.73,-0.36 1.65,-0.84 2.3,-1.27 0.48,-0.32 1.7,-1.3 2.16,-1.45 0.07,-0.2 0.03,-0.1 0.15,-0.25 0.17,-0.21 -0.02,-0.03 0.2,-0.2l2.16 -1.94c0.37,-0.37 0.34,-0.58 0.76,-0.98 0.13,-0.12 0.11,-0.08 0.21,-0.2l0.27 -0.45c0.02,-0.01 0.03,-0.04 0.04,-0.06l0.88 -1.17c0.01,-0.02 0.03,-0.05 0.04,-0.07l0.54 -0.89c0.02,-0.03 0.05,-0.11 0.07,-0.14l1.54 -2.86c0.01,-0.02 0.02,-0.05 0.04,-0.07 0.01,-0.02 0.02,-0.05 0.03,-0.07l0.14 -0.27c0.01,-0.02 0.02,-0.05 0.03,-0.07l0.65 -1.71c0.33,-0.68 0.56,-1.45 0.78,-2.19l0.43 -1.72c0.04,-0.11 0.06,-0.19 0.1,-0.31l0.36 -1.79c0.14,0 0.26,0.01 0.39,-0.02l1.31 -0.74 1.3 -1.56c0.02,-0.02 0.03,-0.05 0.04,-0.07 0.02,-0.02 0.06,-0.1 0.07,-0.13 0.01,-0.02 0.03,-0.05 0.04,-0.07l0.56 -1.28c0.19,-0.6 0.51,-1.19 0.58,-1.77l0.12 -0.71c0.26,-0.76 0.09,-2.25 0.1,-3.08 0.01,-0.81 -0.21,-1.06 -0.21,-1.93 -0.32,0.08 -0.04,0.3 -0.31,-0.21 -0.2,-0.38 -0.69,-2.06 -2,-2.1 -0.89,0.13 -0.48,0.13 0.03,0.46l-0.2 0.18c-0.05,0.04 -0.16,0.09 -0.22,0.12 -0.23,0.07 -0.24,0.05 -0.52,0.05 0.15,0.33 0.52,0.38 -0.21,0.41l0 0.11c0.65,0.06 0.16,0.2 0.66,0.2 0.51,0 0.04,-0.16 0.78,-0.2 0.09,0.35 0.39,0.73 0.53,1.12 0.13,0.37 0.06,0.34 0.08,0.77 0.04,0.66 0.02,0.09 0.15,0.55 0.09,0.33 0.05,0.44 0.05,0.79 0.02,0.66 0.33,0.7 0.18,1.31 -0.11,0.48 -0.11,0.03 -0.17,0.54 -0.12,1.02 0.04,0.85 -0.38,2.1l-0.53 1.42c-0.01,0.03 -0.09,0.21 -0.09,0.22l-0.11 0.2c-0.26,0.43 -0.22,0.49 -0.84,0.5 0.03,-0.97 0.15,-0.07 0.21,-0.87 0.02,-0.28 -0.03,-0.64 -0.01,-0.93 0.05,-0.72 0.14,-0.27 0.21,-0.82 0.03,-0.22 0,-0.67 0,-0.91 0,-0.15 -0.01,-0.38 0,-0.52l0.06 -0.37c0.22,-0.77 0.14,-1.89 0.14,-2.75l-0.3 0 -0.17 1.03c-0.05,0.24 -0.01,0.39 -0.03,0.56 -0.09,0.54 0.08,0.17 -0.21,0.46 -0.15,-0.36 -0.11,-0.54 -0.11,-1.02l-0.1 0c0,0.73 -0.01,1.47 0,2.21 0,0.71 0.21,0.5 0.21,2.09 -0.39,-0.14 -0.28,0.3 -0.31,-0.41l-0.1 0c-0.03,0.71 0.08,0.27 -0.31,0.41 0,-0.42 -0.04,-1.1 0,-1.49 0.07,-0.64 0.21,-0.24 0.21,-1.11 0,-0.91 0,-1.82 0,-2.73 -0.89,0.43 -0.48,2.42 -0.51,3.44 -0.03,0.83 -0.2,0.38 -0.22,1.12 -0.01,0.37 0.06,0.76 -0.03,1.12 -0.19,0.82 -0.13,1.1 -0.2,1.43 -0.11,0.48 -0.11,0.03 -0.17,0.54 -0.02,0.2 0.01,0.39 -0.02,0.6 -0.09,0.54 -0.15,0.18 -0.16,0.53 -0.02,0.44 -0.02,-0.1 0.13,0.39 -0.65,0.15 -0.55,0.47 -0.73,0.99l-2.62 7.84c-0.23,0.54 -0.49,1.18 -0.83,1.64l-2.21 3.22c-0.34,0.52 -2.3,2.33 -2.81,2.83l-0.74 0.81c-0.19,0.13 -0.09,0.06 -0.23,0.17l-0.19 0.13c-0.54,0.32 0.16,-0.11 -0.14,0.07l-0.55 0.47c-0.01,0.01 -0.04,0.03 -0.06,0.04l-0.62 0.41c-0.02,0.01 -0.05,0.02 -0.06,0.03 -0.02,0.02 -0.05,0.03 -0.07,0.04 -0.02,0.01 -0.04,0.03 -0.06,0.04 -0.47,0.33 -0.29,0.32 -0.63,0.38 0,-0.69 0.31,-1.08 0.79,-1.56 0.63,-0.62 0.99,-1.2 1.74,-2.15l0.56 -0.87c0.2,-0.33 0.38,-0.31 0.39,-0.75 -0.36,0.18 -0.6,0.87 -0.85,1.2 -0.01,0.02 -0.03,0.05 -0.04,0.06l-1.14 1.52c-0.29,0.44 -0.65,0.61 -1.02,1.23 -0.31,0.51 -0.87,0.88 -1.28,1.3 -1.27,1.26 -0.93,0.86 -2.14,1.68l-1.32 0.54c0.03,-0.02 0.08,-0.07 0.09,-0.08 0.01,-0.01 0.05,-0.02 0.06,-0.05l0.04 -0.51z"/>
   <path class="fil10 str5" d="M53.01 65.52c0.47,0.12 0.55,0.45 0.89,0.87 0.94,1.16 1.72,1.86 3.13,2.6 1.9,1 5.58,1.56 5.89,1.86l3.07 -4.48c0.12,-0.25 0.26,-0.37 0.4,-0.59 -0.14,-0.39 0,0 -0.29,-0.42l-1.44 -1.84c-0.01,-0.02 -0.03,-0.05 -0.04,-0.07l-0.07 -0.13c-0.15,-0.26 0,-0.07 -0.2,-0.31 -0.68,-0.76 -0.29,-0.47 -0.72,-0.92 -0.34,-0.35 -0.21,-0.28 -0.38,-0.54l-0.29 -0.33c-0.26,-0.28 -0.14,-0.03 -0.25,-0.37 -0.46,0.15 -1.68,1.13 -2.16,1.45 -0.65,0.43 -1.57,0.91 -2.3,1.27 -0.76,0.38 -1.73,0.77 -2.53,1.06 -0.58,0.22 -2.37,0.57 -2.71,0.89z"/>
   <path class="fil11" d="M65.99 66.37c0.03,0 0.08,-0.02 0.1,0.01 0.01,0.04 0.06,0.02 0.09,0.03 0.17,0.04 0.67,0.17 0.62,0.34 -0.05,0.2 0.08,-0.1 -0.06,0.09 -0.48,0.67 0.09,-0.39 -0.14,0.16 0.44,0.07 0.44,0.31 0.84,0.39 0.3,0.06 0.24,-0.04 0.53,0.09 0.84,0.39 -0.36,0.03 0.94,0.39 0.03,0.01 0.05,0.02 0.08,0.03 0.03,0.01 0.11,0.05 0.15,0.06 0.25,0.08 0.62,0.01 0.89,-0.06l0.47 -0.09c-0.01,0.02 -0.04,0.02 -0.05,0.06l-0.15 0.56c0.39,0 0.42,-0.03 0.73,0.08l0.42 0.2c0.5,0.21 0.59,-0.56 1.1,0.33 1.21,-0.1 0.7,0.21 1.44,-0.22 0,0.45 -0.03,0.38 0.32,0.53 0.46,0.2 0.02,0.05 0.59,-0.1 0.61,0.09 0.11,-0.09 0.41,0.41 0.15,-0.01 0.37,-0.04 0.51,-0.03 0.69,0.07 0.01,0.02 0.48,0.16 0.34,0.11 0.21,0.02 0.54,0.05 0.52,0.06 0.41,0.17 0.93,0.21 0.13,0.02 0.13,0 0.28,0.03 0.26,0.06 0.21,0.08 0.24,0.09 0.33,0.12 0.72,0.05 1.06,0.16 0.83,0.25 0.35,-0.04 1.74,0.32 0.33,0.08 0.45,0.03 0.75,0.17 0.49,0.23 0.11,0.06 0.35,0.28 0.19,0.17 -0.21,0.16 0.96,0.16l0 -0.16c0.43,-0.11 0.19,0.14 0.05,-0.4l0.52 -0.02c-0.06,0.26 -0.04,0.19 -0.1,0.42 0.61,0.03 0.2,0 0.7,-0.21l0.01 0.1c0,0.01 0,0.04 0,0.05 -0.03,0.34 -0.14,-0.17 -0.03,0.29 0.72,-0.02 0.18,-0.05 0.74,-0.23l-0.02 0.41c0.35,-0.06 0.31,-0.1 0.64,-0.19l0.01 0.11c0.06,0.22 -0.08,0.19 0.2,0.28l1.44 0.31c0,0.01 -0.02,0.02 -0.02,0.04 0,0.02 -0.02,0.03 -0.02,0.04 -0.06,0.12 -0.37,0.2 0.28,0.5 0.28,0.13 0.27,0.11 0.58,-0.07 0.01,0.62 -0.1,0.3 0.36,0.45 1.32,0.42 0.96,0.52 1.66,0.78 0.06,-0.15 0.07,-0.13 0.12,-0.2 0.36,-0.56 -0.11,0.26 0.11,-0.16l0.39 0.16c0.5,0.19 0.01,0.8 0.47,0.98 0.72,0.27 -0.03,-0.2 0.62,-0.11l0.22 0.5c0.26,0.41 0.19,-0.1 0.35,0.47 0.4,-0.15 0.45,-0.36 0.6,0.22 0.17,0.65 0.28,0.3 0.57,0.87 0.16,0.31 0.09,0.35 0.46,0.66 0.35,0.27 0.52,0.44 0.69,0.85l0.51 0.82c0.46,0.7 0.67,1.48 0.93,2.25l0.49 1.66c0.04,0.13 0.1,0.29 0.13,0.38 0.01,0.04 0.04,0.12 0.05,0.15l0.62 2.47c0.04,0.14 0.02,0.05 0.06,0.24 0.03,0.17 0.01,0.17 0.06,0.35 0.01,0.03 0.02,0.05 0.02,0.08 0.01,0.02 0.03,0.05 0.03,0.07 0.02,0.05 0.03,-0.04 0.08,0.23l0.22 1.12c0.18,1.26 0.15,0.46 0.21,2.04 0.01,0.37 0.11,0.37 0.19,0.73 0.1,0.46 -0.04,1.24 0.03,1.72 0.08,0.55 0.2,0.05 0.2,1.65 -0.01,0.57 -0.02,1.17 0.13,1.6 0.22,0.62 -0.14,0.84 -0.34,1.36l0.74 0.06c-0.08,0.26 -0.2,0.21 -0.37,0.38 -0.15,0.15 -0.13,0.03 -0.28,0.39l0.93 0c0.19,-0.25 0.12,-0.21 0.61,-0.21l0 -1.64c-0.28,-0.11 -0.1,0.06 -0.19,-0.22 -0.14,-0.44 -0.02,-1.07 -0.01,-1.52l-0.14 -1.2c-0.01,-0.02 -0.02,-0.05 -0.03,-0.07 -0.05,-0.19 -0.04,-0.26 -0.05,-0.46 0,-0.46 0.09,-0.98 -0.01,-1.43 -0.13,-0.59 -0.2,-0.57 -0.18,-1.35 0,-0.13 0.01,-0.39 0,-0.51 -0.02,-0.21 0.01,0 -0.02,-0.19 -0.07,-0.29 -0.06,-0.14 -0.09,-0.22 -0.03,-0.11 -0.02,0.13 -0.09,-0.32 -0.02,-0.18 0,-0.29 -0.03,-0.48l-0.14 -0.37c-0.09,-0.32 0,-0.62 -0.09,-0.94 -0.19,-0.68 -0.12,-0.92 -0.29,-1.45l-0.36 -1.28c0,-0.03 -0.02,-0.05 -0.03,-0.07l-1.09 -3.93c-0.01,-0.03 -0.04,-0.12 -0.05,-0.16l-0.05 -0.15c-0.01,-0.02 -0.02,-0.05 -0.03,-0.07 -0.01,-0.03 -0.02,-0.05 -0.03,-0.07l-1.81 -3.01c-0.02,-0.02 -0.08,-0.08 -0.11,-0.1l-1.53 -1.54c-0.01,0 -0.15,-0.15 -0.15,-0.15l-0.3 -0.22c-0.02,-0.01 -0.05,-0.02 -0.07,-0.03l-0.19 -0.12c-0.13,-0.09 -0.17,-0.16 -0.27,-0.25l-2.88 -1.72c-0.02,-0.01 -0.05,-0.02 -0.07,-0.03l-1.2 -0.55c-0.02,-0.01 -0.05,-0.01 -0.08,-0.02l-0.23 -0.08c-0.02,-0.01 -0.05,-0.02 -0.07,-0.03l-3.64 -1.28c-0.19,-0.04 -0.24,-0.02 -0.44,-0.07 -0.02,-0.01 -0.05,-0.02 -0.07,-0.03 -0.03,0 -0.05,-0.02 -0.08,-0.03 -0.02,0 -0.05,-0.02 -0.07,-0.02l-0.6 -0.13c-0.02,0 -0.05,-0.01 -0.07,-0.02l-3.33 -0.78c-0.03,0 -0.05,-0.01 -0.08,-0.02 -0.03,0 -0.05,-0.01 -0.08,-0.02 -0.02,-0.01 -0.05,-0.02 -0.07,-0.03l-2.97 -0.52c-0.55,-0.07 -0.31,-0.15 -0.82,-0.2 -0.21,-0.02 -0.15,0.01 -0.37,-0.04l-4.5 -1.03c-0.03,-0.01 -0.05,-0.02 -0.08,-0.03l-0.82 -0.2c-0.03,-0.01 -0.05,-0.02 -0.08,-0.03l-1.07 -0.35c-0.03,-0.01 -0.05,-0.02 -0.08,-0.03 -0.08,-0.03 -0.06,-0.03 -0.15,-0.06 -0.12,-0.04 -0.25,-0.07 -0.39,-0.12l-0.35 -0.15c-0.03,-0.01 -0.05,-0.03 -0.07,-0.04l-0.48 -0.24c-0.21,-0.11 0.08,0.04 -0.13,-0.07 -0.25,-0.13 -0.47,-0.26 -0.76,-0.27 -0.14,0.22 -0.28,0.34 -0.4,0.59z"/>
   <path class="fil12" d="M46.42 80.58l-4.67 -4.74 -0.46 -0.23c-0.43,0.43 -0.03,0.32 -0.82,0.31 0.1,0.74 0.16,0.57 0.39,0.79 0.31,0.29 -0.08,-0.2 0.15,0.17 0.51,0.83 0.24,0.67 0.76,1.01 0.01,0.02 0.04,0.03 0.06,0.04l0.48 0.46c0.08,0.07 0.08,0.08 0.15,0.15l2.93 2.95 0.71 -0.4c0.17,-0.04 0.18,-0.04 0.35,-0.04l-0.03 -0.47z"/>
   <path class="fil13" d="M41.12 75.15c-0.32,-0.37 -0.23,-0.51 -0.65,-0.52l-0.61 0.74c-0.38,-0.27 -1.9,-2.72 -2.33,-3.37l-2.28 -3.35c-0.36,0 -0.09,0.28 0.33,0.98 0.99,1.64 1.19,1.93 2.01,3.78l1.76 3.13c0.18,0.38 0.08,0.37 0.4,0.5 0.41,-0.21 0.91,-1.24 1.21,-1.67l0.16 -0.22z"/>
   <path class="fil14" d="M55.24 70.65l0.32 -0.13c0.15,0.56 1.15,1.98 1.52,2.52 0.55,0.82 1.05,1.59 1.56,2.34 0.32,-0.15 0.17,-0.09 0.37,-0.28 0.07,-0.07 0.08,-0.1 0.17,-0.16 0.24,-0.18 -0.23,0.03 0.23,-0.14l-1.01 -1.23c-0.35,-0.47 -0.6,-0.78 -0.94,-1.21 -0.34,-0.43 -0.59,-0.77 -0.94,-1.21l-0.92 -1.18c-0.04,0.48 -0.13,0.25 -0.36,0.68z"/>
   <path class="fil15" d="M40.47 74.63c0.42,0.01 0.33,0.15 0.65,0.52l0.15 0c-0.01,-0.37 0.47,-0.83 0.72,-1.19 0.3,-0.43 0.54,-0.8 0.83,-1.22 0.35,-0.5 1.3,-2.08 1.64,-2.4 -0.02,-0.04 -0.11,-0.2 -0.13,-0.25 -0.02,-0.03 -0.03,-0.05 -0.04,-0.1 -0.01,-0.06 -0.03,-0.08 -0.04,-0.11l-3.78 4.75z"/>
   <path class="fil16 str2" d="M48.31 73.41c0.09,0.09 0.03,0.15 0.54,0.3 0.17,0.05 0.36,0.08 0.55,0.13l2.21 0.58c0.17,0.04 0.43,0.12 0.59,0.15 0.37,0.06 0.4,0.1 0.45,0.01 0.01,-0.04 0.06,-0.01 0.09,-0.02 0.04,-0.09 0.04,0.03 0.06,-0.28 0.01,-0.35 -0.12,-0.49 -0.14,-0.96 -0.28,0.22 -3.64,0.07 -4.35,0.09z"/>
   <path class="fil17" d="M54.61 102.46l3.18 0 0 -0.24c-0.58,0.01 -1.16,0.02 -1.75,0.03 -0.27,0.01 -0.55,0.01 -0.82,0.02 -0.45,0.02 -0.39,-0.03 -0.61,0.19z"/>
  </g>
 </g>
</svg>
